<svg width="256" height="256" viewBox="0 0 256 256" fill="none" xmlns="http://www.w3.org/2000/svg">
<rect width="256" height="256" fill="black"/>
<path fill-rule="evenodd" clip-rule="evenodd" d="M138.313 32.7124C138.713 32.9124 138.813 34.8124 138.613 36.8124C138.413 38.8124 137.813 41.2124 137.313 42.2124C136.813 43.1124 135.313 43.9124 133.913 43.9124C131.913 43.9124 131.413 43.4124 131.413 41.4124C131.413 40.0124 130.813 38.9124 130.113 38.9124C129.513 38.9124 128.113 41.5124 127.113 44.6124C125.613 49.3124 125.513 50.5124 126.613 51.2124C127.313 51.6124 129.013 52.2124 130.413 52.5124C131.813 52.8124 134.013 53.4124 135.413 53.8124C137.513 54.4124 137.913 55.2124 138.113 58.7124C138.313 61.7124 138.813 62.9124 139.913 62.9124C141.113 62.9124 141.313 62.1124 140.813 59.2124C140.213 55.5124 140.313 55.4124 142.513 56.2124C143.813 56.7124 147.413 57.6124 150.413 58.4124C153.413 59.2124 159.013 61.1124 162.913 62.7124C166.713 64.4124 173.713 67.9125 178.413 70.5125C183.113 73.2125 189.013 76.8124 191.413 78.6124C194.713 80.9124 196.813 83.7124 199.313 88.6124C201.213 92.3124 203.313 97.9124 204.013 100.912C204.713 103.912 205.313 110.912 205.413 116.412C205.413 121.912 204.513 131.312 203.513 137.412C202.513 143.512 200.613 151.812 199.413 155.912C198.213 160.012 193.613 170.612 181.513 195.412L170.213 206.612C164.013 212.812 157.813 218.612 156.413 219.612C155.013 220.512 153.413 221.312 152.713 221.312C152.013 221.412 150.913 222.212 150.213 223.212C149.513 224.112 145.513 226.112 141.413 227.612C135.813 229.612 131.413 230.412 123.913 230.712C118.013 230.912 112.813 230.612 111.113 230.012C108.813 229.112 108.513 228.512 108.913 225.912C109.213 224.312 108.913 222.712 108.413 222.412C107.813 222.112 106.513 222.712 105.413 223.712C104.213 224.612 103.313 226.012 103.413 226.712C103.413 227.312 102.613 227.912 101.613 227.912C100.713 227.912 98.5127 227.312 96.8127 226.612C94.1127 225.612 93.7127 224.912 93.8127 221.912C93.9127 218.812 93.6127 218.412 91.6127 218.712C90.4127 218.812 89.2127 218.512 88.9127 217.912C88.6127 217.312 87.1127 217.712 82.4127 220.912L74.9127 215.912C70.8127 213.212 67.4127 210.612 67.4127 210.212C67.4127 209.712 67.8127 209.012 68.4127 208.412C69.2127 207.712 69.0127 206.912 67.9127 205.912C67.0127 205.112 66.3127 204.012 66.3127 203.412C66.3127 202.812 67.1127 201.612 68.1127 200.712C69.8127 199.012 70.1127 199.112 74.6127 201.912C78.1127 204.112 79.4127 205.512 79.4127 207.212C79.3127 208.412 80.1127 210.512 81.1127 211.812C82.2127 213.312 83.5127 214.012 84.4127 213.612C85.2127 213.212 86.7127 212.312 87.7127 211.712C89.2127 210.612 89.7127 210.712 90.7127 211.912C91.4127 212.712 93.4127 213.512 95.1127 213.712C96.9127 213.812 99.5127 214.312 100.913 214.912C102.413 215.512 103.413 216.712 103.413 217.912C103.413 219.012 103.913 219.912 104.513 219.912C105.113 219.912 106.213 219.212 107.013 218.412C107.913 217.612 109.313 216.912 110.213 216.912C111.113 216.912 112.613 217.312 113.413 217.812C114.713 218.612 114.713 218.912 113.413 220.712C112.613 221.812 112.013 223.912 112.113 225.312C112.313 227.012 113.013 227.912 114.113 227.912C115.113 227.912 116.613 226.812 117.413 225.412C118.613 223.312 118.713 222.412 117.613 220.812C116.613 219.312 116.613 218.812 117.613 218.512C118.313 218.312 122.913 217.912 127.913 217.612C134.113 217.312 138.513 216.512 146.913 212.812L150.713 217.412L150.313 214.612C150.013 212.712 150.513 211.312 151.513 210.612C152.413 209.912 156.613 206.512 160.813 202.912C165.113 199.312 170.413 193.912 172.713 190.912C175.013 187.912 178.113 183.412 179.613 180.912C181.113 178.412 183.613 173.712 185.213 170.412C186.813 167.112 188.413 163.312 188.913 161.912C189.313 160.512 190.213 158.112 191.013 156.412C191.713 154.712 193.213 147.312 194.413 139.912C195.513 132.512 196.513 123.512 196.513 119.912C196.513 116.312 196.013 110.912 195.413 107.912C194.813 104.912 193.113 100.212 191.613 97.5125C190.013 94.5125 186.513 90.6124 182.913 87.8124C179.613 85.2124 175.713 81.9125 174.113 80.5125C172.613 79.1125 170.713 77.9124 169.913 77.9124C169.113 77.9124 167.613 77.0124 166.613 75.9124C165.613 74.7124 164.213 74.1124 163.113 74.4124C162.213 74.7124 160.413 74.3124 159.113 73.6124C157.913 72.8124 156.613 70.9124 156.313 69.3124C155.913 67.6124 154.713 66.1124 153.513 65.7124C152.113 65.1791 151.379 65.3458 151.313 66.2124C151.213 66.8124 151.113 67.8124 150.913 68.4124C150.813 69.0124 150.613 69.7124 150.613 70.2124C150.513 70.6124 148.913 70.3125 147.113 69.5125C145.413 68.7125 140.713 67.3124 129.913 64.9124L129.113 60.9124C128.713 58.4124 127.913 57.0124 127.113 57.3124C126.513 57.5124 126.013 58.8124 126.113 60.3124C126.313 62.2124 125.913 62.9124 124.613 62.9124C123.713 62.9124 120.013 62.4124 116.413 61.8124C112.813 61.3124 109.813 60.4124 109.613 59.8124C109.513 59.3124 108.613 58.9124 107.613 58.9124C106.713 58.9124 105.313 58.4124 104.613 57.7124C103.913 57.0124 103.413 54.6124 103.413 52.4124C103.413 49.5124 104.013 47.7124 105.913 45.9124C107.913 43.9124 108.513 43.7124 108.813 44.9124C109.113 45.7124 109.413 47.3124 109.613 48.4124C109.813 49.5124 110.413 50.2124 110.913 49.9124C111.513 49.6124 111.913 48.9124 111.813 48.4124C111.713 47.9124 111.413 46.4124 111.013 45.2124C110.513 43.1124 111.113 42.6124 117.113 39.9124C120.913 38.2124 124.713 37.1124 125.613 37.4124C126.613 37.7124 127.913 37.2124 128.513 36.4124C129.213 35.6124 131.513 34.3124 133.713 33.6124C135.913 32.8124 138.013 32.4124 138.313 32.7124ZM61.1127 118.912C62.0127 118.912 62.5127 119.212 62.1127 119.612C61.8127 120.112 61.9127 121.412 62.4127 122.612C63.2127 124.412 62.5127 127.712 59.3127 137.112C55.4127 148.712 55.2127 150.112 55.0127 161.912C54.9127 172.612 55.2127 175.412 57.3127 181.412C58.5127 185.312 60.0127 189.812 60.5127 191.412C61.2127 193.912 61.0127 194.812 59.1127 196.712C57.9127 197.912 56.6127 198.912 56.1127 198.912C55.7127 198.912 54.2127 196.312 52.8127 193.112C51.4127 190.012 50.1127 186.712 50.0127 185.912C49.9127 185.112 49.2127 183.112 48.4127 181.412C47.6127 179.512 47.1127 174.012 47.0127 166.412C46.9127 159.812 47.4127 152.612 48.1127 150.412C48.7127 148.212 50.2127 142.812 51.4127 138.412C52.6127 134.012 54.9127 127.812 56.6127 124.612C58.3127 121.312 60.2127 118.912 61.1127 118.912ZM173.213 25.0124C176.313 24.9124 177.713 25.4124 178.313 26.6124C179.213 28.3124 179.313 28.3124 179.813 26.6124C180.313 25.1124 181.613 25.0124 191.913 25.4124C198.213 25.7124 203.913 26.2124 204.513 26.6124C205.113 27.1124 205.313 28.2124 205.013 29.1124C204.713 30.2124 204.813 30.7124 205.413 30.4124C206.013 30.1124 206.713 30.7124 207.113 31.6124C207.413 32.7124 207.113 33.9124 206.113 34.6124C205.113 35.3124 204.613 36.3124 204.913 36.9124C205.213 37.4124 205.113 38.1124 204.713 38.3124C204.213 38.5124 202.713 38.9124 201.213 39.3124C199.346 39.7124 197.913 39.4124 196.913 38.4124C196.113 37.6124 195.413 37.3124 195.413 37.9124C195.413 38.4124 193.713 38.9124 191.713 38.9124C189.613 38.9124 186.113 38.4124 183.913 37.8124C181.713 37.2124 177.013 36.6124 173.413 36.5124C169.813 36.4124 162.413 37.1124 156.913 38.0124C151.413 39.0124 145.713 40.0124 144.213 40.3124C141.613 40.9124 141.413 40.6124 140.813 37.1124C140.413 34.6458 140.679 32.9791 141.613 32.1124C142.313 31.4124 146.413 30.0124 150.613 28.8124C154.913 27.7124 159.113 26.9124 160.113 27.0124C161.113 27.1124 162.613 26.9124 163.413 26.6124C164.213 26.3124 165.813 25.8124 166.913 25.6124C168.013 25.3124 170.813 25.1124 173.213 25.0124ZM88.6127 74.6124C89.0127 74.7124 88.9127 76.1124 88.3127 77.6124C87.7127 79.2124 85.9127 82.8124 84.3127 85.6124C82.5127 88.9124 80.7127 90.9124 79.6127 90.9124C78.7127 90.9124 77.2127 90.5125 76.4127 90.0125C75.1127 89.2125 75.6127 88.0124 79.2127 82.8124C81.5127 79.4124 84.4127 76.1124 85.6127 75.4124C86.8127 74.8124 88.1127 74.4124 88.6127 74.6124ZM71.6127 97.9124C72.0127 97.9124 72.7127 98.9124 73.0127 100.112C73.3127 101.412 73.3127 103.612 73.0127 105.112C72.7127 106.712 71.0127 108.812 69.4127 109.912C67.7127 111.012 65.9127 111.712 65.4127 111.412C64.8127 111.112 64.4127 110.212 64.4127 109.412C64.4127 108.512 64.9127 108.212 65.6127 108.612C66.4794 109.146 66.6461 108.979 66.1127 108.112C65.7127 107.412 66.3127 105.912 67.4127 104.612C68.5127 103.412 69.4127 101.712 69.3127 100.812C69.2127 99.9124 69.4127 98.9124 69.9127 98.6124C70.4127 98.2124 71.1127 97.9124 71.6127 97.9124Z" fill="white"/>
</svg>
